rotated_Sprint_07200001_forces_filt5Hz.mot
version=1
nRows=19
nColumns=19
inDegrees=yes
endheader
time	R_ground_force_vx	R_ground_force_vy	R_ground_force_vz	R_ground_force_px	R_ground_force_py	R_ground_force_pz	R_ground_torque_x	R_ground_torque_y	R_ground_torque_z	L_ground_force_vx	L_ground_force_vy	L_ground_force_vz	L_ground_force_px	L_ground_force_py	L_ground_force_pz	L_ground_torque_x	L_ground_torque_y	L_ground_torque_z	
1.589500	  0.000000	  0.000000	  0.000000	  0.137100	  0.000000	 -0.297543	  0.000000	  0.000000	  0.000000	  0.000000	  0.000000	  0.000000	  1.188521	  0.000000	 -0.173431	  0.000000	  0.000000	  0.000000
1.590000	  0.000000	  0.000000	  0.000000	  0.136045	  0.000000	 -0.300356	  0.000000	  0.000000	  0.000000	  0.000000	  0.000000	  0.000000	  1.190364	  0.000000	 -0.172987	  0.000000	  0.000000	  0.000000
1.590500	  0.000000	  0.000000	  0.000000	  0.135233	  0.000000	 -0.303192	  0.000000	  0.000000	  0.000000	  0.000000	  0.000000	  0.000000	  1.191770	  0.000000	 -0.172731	  0.000000	  0.000000	  0.000000
1.591000	  0.000000	  0.000000	  0.000000	  0.134422	  0.000000	 -0.306028	  0.000000	  0.000000	  0.000000	  0.000000	  0.000000	  0.000000	  1.193176	  0.000000	 -0.172475	  0.000000	  0.000000	  0.000000
1.591500	  0.000000	  0.000000	  0.000000	  0.133610	  0.000000	 -0.308865	  0.000000	  0.000000	  0.000000	  0.000000	  0.000000	  0.000000	  1.194582	  0.000000	 -0.172218	  0.000000	  0.000000	  0.000000
1.592000	  0.000000	  0.000000	  0.000000	  0.132799	  0.000000	 -0.311701	  0.000000	  0.000000	  0.000000	  0.000000	  0.000000	  0.000000	  1.195988	  0.000000	 -0.171962	  0.000000	  0.000000	  0.000000
1.592500	  0.000000	  0.000000	  0.000000	  0.131987	  0.000000	 -0.314537	  0.000000	  0.000000	  0.000000	  0.000000	  0.000000	  0.000000	  1.197394	  0.000000	 -0.171706	  0.000000	  0.000000	  0.000000
1.593000	  0.000000	  0.000000	  0.000000	  0.131175	  0.000000	 -0.317373	  0.000000	  0.000000	  0.000000	  0.000000	  0.000000	  0.000000	  1.198800	  0.000000	 -0.171450	  0.000000	  0.000000	  0.000000
1.593500	  0.000000	  0.000000	  0.000000	  0.130364	  0.000000	 -0.320209	  0.000000	  0.000000	  0.000000	  0.000000	  0.000000	  0.000000	  1.200206	  0.000000	 -0.171194	  0.000000	  0.000000	  0.000000
1.594000	  0.000000	  0.000000	  0.000000	  0.129552	  0.000000	 -0.323046	  0.000000	  0.000000	  0.000000	  0.000000	  0.000000	  0.000000	  1.201612	  0.000000	 -0.170937	  0.000000	  0.000000	  0.000000
1.594500	  0.000000	  0.000000	  0.000000	  0.128741	  0.000000	 -0.325882	  0.000000	  0.000000	  0.000000	  0.000000	  0.000000	  0.000000	  1.203018	  0.000000	 -0.170681	  0.000000	  0.000000	  0.000000
1.595000	  0.000000	  0.000000	  0.000000	  0.127929	  0.000000	 -0.328718	  0.000000	  0.000000	  0.000000	  0.000000	  0.000000	  0.000000	  1.204424	  0.000000	 -0.170425	  0.000000	  0.000000	  0.000000
1.595500	  0.000000	  0.000000	  0.000000	  0.127341	  0.000000	 -0.331542	  0.000000	  0.000000	  0.000000	  0.000000	  0.000000	  0.000000	  1.205402	  0.000000	 -0.170282	  0.000000	  0.000000	  0.000000
1.596000	  0.000000	  0.000000	  0.000000	  0.126754	  0.000000	 -0.334365	  0.000000	  0.000000	  0.000000	  0.000000	  0.000000	  0.000000	  1.206380	  0.000000	 -0.170139	  0.000000	  0.000000	  0.000000
1.596500	  0.000000	  0.000000	  0.000000	  0.126166	  0.000000	 -0.337189	  0.000000	  0.000000	  0.000000	  0.000000	  0.000000	  0.000000	  1.207358	  0.000000	 -0.169997	  0.000000	  0.000000	  0.000000
1.597000	  0.000000	  0.000000	  0.000000	  0.125578	  0.000000	 -0.340013	  0.000000	  0.000000	  0.000000	  0.000000	  0.000000	  0.000000	  1.208336	  0.000000	 -0.169854	  0.000000	  0.000000	  0.000000
1.597500	  0.000000	  0.000000	  0.000000	  0.124991	  0.000000	 -0.342836	  0.000000	  0.000000	  0.000000	  0.000000	  0.000000	  0.000000	  1.209314	  0.000000	 -0.169711	  0.000000	  0.000000	  0.000000
1.598000	  0.000000	  0.000000	  0.000000	  0.124403	  0.000000	 -0.345660	  0.000000	  0.000000	  0.000000	  0.000000	  0.000000	  0.000000	  1.210292	  0.000000	 -0.169568	  0.000000	  0.000000	  0.000000
1.598500	  0.000000	  0.000000	  0.000000	  0.123815	  0.000000	 -0.348484	  0.000000	  0.000000	  0.000000	  0.000000	  0.000000	  0.000000	  1.211270	  0.000000	 -0.169425	  0.000000	  0.000000	  0.000000
